<?xml version="1.0" encoding="utf-8"?>
<!-- Generator: Adobe Illustrator 26.2.1, SVG Export Plug-In . SVG Version: 6.00 Build 0)  -->
<svg version="1.1" id="Ebene_1" xmlns="http://www.w3.org/2000/svg" xmlns:xlink="http://www.w3.org/1999/xlink" x="0px" y="0px"
	 viewBox="0 0 188.8 82.8" style="enable-background:new 0 0 188.8 82.8;" xml:space="preserve">
<style type="text/css">
	.st0{fill:none;stroke:#000000;stroke-width:1.9993;stroke-miterlimit:9.9966;}
	.st1{fill:#FF7300;}
	.st2{stroke:#FFFFFF;stroke-width:0.9997;stroke-miterlimit:9.9966;}
</style>
<polyline class="st0" points="85,70.5 187.8,70.6 187.8,1 1,1 1,70.6 "/>
<g>
	<path d="M9.8,18.3h2.8v11h0.1l9.1-11H25l-6.9,8.4L26,40.2h-3.1l-6.5-11.4l-3.8,4.5v6.9H9.8V18.3z"/>
	<path d="M29.2,18.3h2.7v19.6h9.6v2.3H29.2V18.3z"/>
	<path d="M45.4,18.3H58v2.4h-9.8v6.8h8.3v2.4h-8.3v8h10.2v2.3h-13V18.3z"/>
	<path d="M67.6,20.7h-6.7v-2.4H77v2.4h-6.6v19.5h-2.8V20.7z"/>
	<path d="M85.5,20.7h-6.6v-2.4h16v2.4h-6.6v19.5h-2.8V20.7z"/>
	<path d="M98.8,18.3h12.7v2.4h-9.9v6.8h8.3v2.4h-8.3v8h10.2v2.3h-13L98.8,18.3z"/>
	<path d="M116.4,18.3h6.9c4.5,0,7.7,1.6,7.7,6.2s-3.2,6.5-7.7,6.5h-4.1v9.2h-2.8L116.4,18.3z M122.9,28.7c3.4,0,5.3-1.4,5.3-4.2
		s-1.9-3.9-5.3-3.9h-3.7v8.1H122.9z M122.8,30.2l2.2-1.4l6.6,11.4h-3.1L122.8,30.2z"/>
	<path class="st1" d="M9.4,49.1h4.9V58h0.1l6.5-8.9h5.4l-6.6,8.7l7.8,13.1h-5.4l-5.3-9.2L14.3,65v5.9H9.4V49.1z"/>
	<path class="st1" d="M29.2,60.8V49.1h4.9v12.2c0,4.3,1.3,5.7,3.8,5.7s3.8-1.4,3.8-5.7V49.1h4.8v11.7c0,7.3-3,10.5-8.6,10.5
		S29.2,68.1,29.2,60.8z"/>
	<path class="st1" d="M51.5,49.1h4.9v17.6H65v4.2H51.5V49.1z"/>
	<path class="st1" d="M69.1,53.2h-6v-4.1H80v4.1h-6v17.7h-4.9V53.2z"/>
</g>
<polygon class="st1" points="85.9,66.5 102.6,52.6 111,58.1 121.7,42.8 138.9,51.2 150.4,28.9 156.1,45.6 184,6.8 183.4,66.5 "/>
<path class="st2" d="M140.1,50.4"/>
<path class="st2" d="M154,61.6"/>
<g>
	<path d="M9.8,74.8h0.4v3.5h4.4v-3.5H15v7.9h-0.4v-4.1h-4.4v4.1H9.8L9.8,74.8z"/>
	<path d="M21,74.8h0.3l2.8,7.9h-0.4l-1.6-4.8c-0.4-0.9-0.7-1.8-0.9-2.7h-0.1l-0.9,2.7l-1.7,4.8h-0.4L21,74.8z M19.4,79.5h3.5v0.3
		h-3.5V79.5z"/>
	<path d="M27.3,74.8h0.4l3.5,5.8l0.9,1.5l0,0v-7.3h0.3v7.9H32l-3.5-5.8l-0.9-1.6l0,0v7.4h-0.3V74.8z"/>
	<path d="M36.6,74.8H37l3.5,5.8l1,1.5l0,0v-7.3h0.3v7.9h-0.4l-3.5-5.8L37,75.3h-0.1C37,76,37,76.7,37,77.5v5.2h-0.4V74.8z"/>
	<path d="M45.5,78.7c0-2.5,1.3-4.1,3.2-4.1c1.9,0,3.2,1.6,3.2,4.1s-1.3,4.1-3.2,4.1C46.8,82.8,45.5,81.2,45.5,78.7z M51.5,78.7
		c0-2.3-1.1-3.7-2.8-3.7c-1.7,0-2.8,1.4-2.8,3.7s1.1,3.8,2.8,3.8C50.4,82.5,51.5,81,51.5,78.7z"/>
	<path d="M54.3,74.8h0.5l1.5,4.7c0.3,1,0.5,1.7,0.9,2.7l0,0l0.9-2.7l1.5-4.7H60l-2.6,7.9H57L54.3,74.8z"/>
	<path d="M63.1,74.8h4.2v0.3h-3.9v3.2h3.3v0.3h-3.3v3.7h4v0.4h-4.3V74.8z"/>
	<path d="M71,74.8h2.2c1.5,0,2.5,0.5,2.5,2c0,1.5-1,2.1-2.5,2.1h-1.8v3.8H71V74.8z M73,78.6c1.5,0,2.3-0.6,2.3-1.8s-0.8-1.7-2.3-1.7
		h-1.6v3.5H73z M73.1,78.8h0.4l2.3,3.9h-0.4L73.1,78.8z"/>
</g>
</svg>
