<svg xmlns="http://www.w3.org/2000/svg" viewBox="0 0 18 18"><defs><style>.cls-1{fill:#fff;}</style></defs><g id="Layer_2" data-name="Layer 2"><g id="Layer_1-2" data-name="Layer 1"><path class="cls-1" d="M16.67,0H1.33A1.32,1.32,0,0,0,0,1.33V16.67A1.32,1.32,0,0,0,1.33,18H16.67A1.32,1.32,0,0,0,18,16.67V1.33A1.32,1.32,0,0,0,16.67,0ZM5.36,15.33H2.66V6.74h2.7ZM4,5.55A1.56,1.56,0,1,1,4,2.44,1.56,1.56,0,1,1,4,5.55Zm11.33,9.79h-2.7V10.65c0-1.39-.59-1.82-1.35-1.82A1.65,1.65,0,0,0,9.7,10.68v4.66H7V6.74h2.6v1.2h0A2.94,2.94,0,0,1,12.2,6.5c1.51,0,3.14.9,3.14,3.52Z"/></g></g></svg>