<svg xmlns="http://www.w3.org/2000/svg" viewBox="0 0 188.8 82.8"><defs><style>.cls-1{fill:#fff;}.cls-2{fill:none;stroke:#000;stroke-miterlimit:10;stroke-width:2px;}.cls-3{fill:#ff7300;}</style></defs><g id="Layer_2" data-name="Layer 2"><g id="Ebene_1" data-name="Ebene 1"><rect class="cls-1" width="188.8" height="82.8"/><polyline class="cls-2" points="85 70.5 187.8 70.6 187.8 1 1 1 1 70.6"/><path d="M9.8,13.3h2.8v11h.1l9.1-11H25l-6.9,8.4L26,35.2H22.9L16.4,23.8l-3.8,4.5v6.9H9.8Z"/><path d="M29.2,13.3h2.7V32.9h9.6v2.3H29.2Z"/><path d="M45.4,13.3H58v2.4H48.2v6.8h8.3v2.4H48.2v8H58.4v2.3h-13Z"/><path d="M67.6,15.7H60.9V13.3H77v2.4H70.4V35.2H67.6Z"/><path d="M85.5,15.7H78.9V13.3h16v2.4H88.3V35.2H85.5Z"/><path d="M98.8,13.3h12.7v2.4h-9.9v6.8h8.3v2.4h-8.3v8h10.2v2.3h-13Z"/><path d="M116.4,13.3h6.9c4.5,0,7.7,1.6,7.7,6.2s-3.2,6.5-7.7,6.5h-4.1v9.2h-2.8Zm6.5,10.4c3.4,0,5.3-1.4,5.3-4.2s-1.9-3.9-5.3-3.9h-3.7v8.1Zm-.1,1.5,2.2-1.4,6.6,11.4h-3.1Z"/><path class="cls-3" d="M9.4,44.1h4.9V53h.1l6.5-8.9h5.4l-6.6,8.7,7.8,13.1H22.1l-5.3-9.2L14.3,60v5.9H9.4Z"/><path class="cls-3" d="M29.2,55.8V44.1h4.9V56.3c0,4.3,1.3,5.7,3.8,5.7s3.8-1.4,3.8-5.7V44.1h4.8V55.8c0,7.3-3,10.5-8.6,10.5S29.2,63.1,29.2,55.8Z"/><path class="cls-3" d="M51.5,44.1h4.9V61.7H65v4.2H51.5Z"/><path class="cls-3" d="M69.1,48.2h-6V44.1H80v4.1H74V65.9H69.1Z"/><polygon class="cls-3" points="85.9 66.5 102.6 52.6 111 58.1 121.7 42.8 138.9 51.2 150.4 28.9 156.1 45.6 184 6.8 183.4 66.5 85.9 66.5"/><path d="M9.8,71.8h.4v3.5h4.4V71.8H15v7.9h-.4V75.6H10.2v4.1H9.8Z"/><path d="M21,71.8h.3l2.8,7.9h-.4l-1.6-4.8a14.26,14.26,0,0,1-.9-2.7h-.1l-.9,2.7-1.7,4.8h-.4Zm-1.6,4.7h3.5v.3H19.4Z"/><path d="M27.3,71.8h.4l3.5,5.8.9,1.5h0V71.8h.3v7.9H32l-3.5-5.8-.9-1.6h0v7.4h-.3Z"/><path d="M36.6,71.8H37l3.5,5.8,1,1.5h0V71.8h.3v7.9h-.4l-3.5-5.8L37,72.3h-.1a15.48,15.48,0,0,1,.1,2.2v5.2h-.4Z"/><path d="M45.5,75.7c0-2.5,1.3-4.1,3.2-4.1s3.2,1.6,3.2,4.1-1.3,4.1-3.2,4.1S45.5,78.2,45.5,75.7Zm6,0c0-2.3-1.1-3.7-2.8-3.7s-2.8,1.4-2.8,3.7,1.1,3.8,2.8,3.8S51.5,78,51.5,75.7Z"/><path d="M54.3,71.8h.5l1.5,4.7c.3,1,.5,1.7.9,2.7h0l.9-2.7,1.5-4.7H60l-2.6,7.9H57Z"/><path d="M63.1,71.8h4.2v.3H63.4v3.2h3.3v.3H63.4v3.7h4v.4H63.1Z"/><path d="M71,71.8h2.2c1.5,0,2.5.5,2.5,2s-1,2.1-2.5,2.1H71.4v3.8H71Zm2,3.8c1.5,0,2.3-.6,2.3-1.8s-.8-1.7-2.3-1.7H71.4v3.5Zm.1.2h.4l2.3,3.9h-.4Z"/></g></g></svg>